<svg width="111" height="28" viewBox="0 0 111 28" fill="none" xmlns="http://www.w3.org/2000/svg">
<path d="M8.46474 4.87041H11.1581L6.9257 16.1384H4.28734L0 4.87041H2.69333L5.60652 12.7855L8.46474 4.87041ZM12.2024 16.1384H14.8408V4.87041H12.2024V16.1384ZM27.2631 8.1134C27.5379 8.77299 27.7028 9.48754 27.7028 10.2571V11.1915H18.5235C18.6884 11.961 19.0731 12.6206 19.6778 13.1153C20.2824 13.61 21.0519 13.8298 21.9863 13.8298C22.7009 13.8298 23.3605 13.6649 23.9101 13.2802C24.4598 12.8954 24.8446 12.4557 25.1194 11.8511L27.2631 13.0603C26.7684 13.9947 26.1088 14.7093 25.2293 15.259C24.3499 15.8086 23.3055 16.0834 22.0413 16.0834C21.1618 16.0834 20.3374 15.9185 19.6228 15.6437C18.9082 15.3689 18.2487 14.9292 17.754 14.4345C17.2593 13.9398 16.8195 13.3352 16.5447 12.6206C16.2699 11.961 16.105 11.1915 16.105 10.422C16.105 9.65244 16.2699 8.88292 16.5447 8.16836C16.8195 7.45381 17.2593 6.84918 17.8089 6.35449C18.3586 5.8598 18.9632 5.42007 19.6778 5.14524C20.3923 4.87041 21.1618 4.70552 21.9863 4.70552C22.8108 4.70552 23.5803 4.81545 24.2949 5.09028C25.0095 5.36511 25.6141 5.74987 26.1088 6.24456C26.5485 6.90415 26.9333 7.45381 27.2631 8.1134ZM25.0644 9.04782C24.8446 8.44319 24.5148 7.9485 23.9651 7.6187C23.4154 7.28891 22.7559 7.12401 21.9314 7.12401C21.1618 7.12401 20.4473 7.28891 19.8976 7.6187C19.348 7.9485 18.9082 8.44319 18.6884 8.99285H25.0644V9.04782ZM21.8764 2.06715L23.0307 3.7711H25.0095L22.7009 0.473145H21.1069L18.7983 3.7711H20.7771L21.8764 2.06715ZM33.0894 1.40757L30.4511 3.16647V4.87041H28.5273V7.17898H30.4511V11.4113C30.4511 12.2908 30.506 13.0603 30.6709 13.6649C30.8358 14.2696 31.0557 14.7643 31.3855 15.0941C31.7153 15.4239 32.21 15.6987 32.7596 15.8636C33.3643 16.0285 34.0788 16.0834 34.9583 16.0834H35.343V13.6649C34.8483 13.6649 34.4636 13.6649 34.1338 13.61C33.859 13.555 33.5841 13.4451 33.4192 13.2802C33.2543 13.1153 33.1444 12.8954 33.0894 12.5656C33.0345 12.2908 33.0345 11.8511 33.0345 11.3564V7.12401H35.343V4.81545H33.0345V1.40757H33.0894ZM48.0401 8.1134C48.3699 8.82795 48.5348 9.59748 48.5348 10.5319C48.5348 11.4113 48.3699 12.2358 48.0401 12.8954C47.7104 13.61 47.3256 14.1596 46.7759 14.6543C46.2812 15.149 45.6766 15.4788 45.017 15.7537C44.3574 16.0285 43.6978 16.1384 42.9833 16.1384C42.2138 16.1384 41.4992 16.0285 40.8396 15.7537C40.18 15.4788 39.6853 15.0941 39.3006 14.5994V27.3514H36.7172V4.87041H39.3006V6.51939C39.6853 6.02469 40.235 5.58497 40.8396 5.31014C41.4992 4.98035 42.1588 4.87041 42.9283 4.87041C43.6429 4.87041 44.3025 4.98035 44.9621 5.25518C45.6216 5.53 46.2263 5.8598 46.721 6.35449C47.2157 6.84918 47.7104 7.45381 48.0401 8.1134ZM45.9514 10.4769C45.9514 10.0372 45.8415 9.59748 45.6766 9.21271C45.5117 8.82795 45.2369 8.49816 44.9621 8.16836C44.6323 7.89353 44.3025 7.67367 43.8627 7.45381C43.478 7.28891 42.9833 7.17898 42.5436 7.17898C42.0489 7.17898 41.6091 7.28891 41.1694 7.45381C40.7847 7.61871 40.3999 7.83857 40.1251 8.16836C39.8502 8.44319 39.5754 8.82795 39.4105 9.21271C39.2456 9.59748 39.1357 10.0372 39.1357 10.4769C39.1357 10.9167 39.2456 11.3564 39.4105 11.7411C39.5754 12.1259 39.7953 12.5107 40.1251 12.7855C40.3999 13.0603 40.7847 13.3352 41.1694 13.5001C41.5542 13.6649 42.0489 13.7749 42.5436 13.7749C43.0383 13.7749 43.478 13.6649 43.8627 13.5001C44.2475 13.3352 44.6323 13.1153 44.9621 12.7855C45.2919 12.5107 45.5117 12.1259 45.6766 11.7411C45.8415 11.4113 45.9514 10.9716 45.9514 10.4769ZM55.6254 4.87041C54.9109 4.87041 54.2513 5.03531 53.7016 5.31014C53.152 5.58497 52.6573 5.96973 52.2725 6.46442V1.90226H49.6891V16.1384H52.3275V10.0922C52.3275 9.59747 52.3824 9.21272 52.5473 8.82796C52.6573 8.44319 52.8771 8.1134 53.097 7.89353C53.3169 7.6187 53.5917 7.45381 53.9215 7.34387C54.2513 7.23394 54.5811 7.12401 54.9658 7.12401C55.7903 7.12401 56.4499 7.39884 56.8896 7.89353C57.3294 8.38823 57.5492 9.04782 57.5492 9.92727V16.1934H60.1876V9.59747C60.1876 8.1134 59.8028 6.95912 58.9783 6.13463C58.1539 5.31014 57.0545 4.87041 55.6254 4.87041ZM69.257 10.9167C69.257 11.906 69.0371 12.6206 68.5424 13.1153C68.0477 13.61 67.4981 13.8848 66.7285 13.8848C65.904 13.8848 65.2994 13.61 64.9147 13.1153C64.5299 12.6206 64.31 11.961 64.31 11.0816V4.87041H61.6717V11.4113C61.6717 12.8954 62.0564 14.0497 62.826 14.8742C63.5955 15.6987 64.6398 16.1384 66.014 16.1384C66.7285 16.1384 67.3881 16.0285 67.8828 15.7537C68.4325 15.4788 68.8722 15.149 69.257 14.7093V16.1384H71.8404V4.87041H69.257V10.9167ZM84.8673 2.83668H86.0215V4.26579H84.8673V16.1934H82.2839V14.5994C81.8991 15.0941 81.3494 15.4788 80.6899 15.8086C80.0303 16.0834 79.3707 16.2483 78.6012 16.2483C77.9416 16.2483 77.227 16.1384 76.5674 15.8636C75.9078 15.5888 75.3032 15.259 74.8085 14.7643C74.2589 14.2696 73.8741 13.6649 73.5443 13.0054C73.2145 12.2908 73.0496 11.5213 73.0496 10.6418C73.0496 9.76237 73.2145 8.93788 73.5443 8.22333C73.8741 7.50877 74.2589 6.95911 74.8085 6.46442C75.3582 5.96973 75.9078 5.63993 76.6224 5.36511C77.282 5.09028 77.9965 4.98035 78.7111 4.98035C79.4257 4.98035 80.1402 5.14524 80.7448 5.42007C81.3494 5.6949 81.8991 6.07966 82.2839 6.57435V4.37572H81.0197V2.94661H82.2839V2.06715H84.9222V2.83668H84.8673ZM82.3938 10.4769C82.3938 10.0372 82.2839 9.59748 82.119 9.21271C81.9541 8.82795 81.7342 8.44319 81.4044 8.16836C81.1296 7.89353 80.7448 7.61871 80.3601 7.45381C79.9753 7.28891 79.4806 7.17898 78.9859 7.17898C78.4912 7.17898 78.0515 7.28891 77.6667 7.45381C77.227 7.61871 76.8972 7.83857 76.5674 8.16836C76.2376 8.44319 76.0178 8.82795 75.8529 9.21271C75.688 9.59748 75.578 10.0372 75.578 10.4769C75.578 10.9167 75.688 11.3564 75.8529 11.7961C76.0178 12.1809 76.2926 12.5656 76.5674 12.8405C76.8972 13.1153 77.227 13.3901 77.6667 13.555C78.1065 13.7199 78.5462 13.8298 78.9859 13.8298C79.4806 13.8298 79.9203 13.7199 80.3601 13.555C80.7448 13.3901 81.1296 13.1703 81.4044 12.8405C81.6792 12.5656 81.9541 12.1809 82.119 11.7961C82.3388 11.3564 82.3938 10.9716 82.3938 10.4769ZM95.4207 4.87041H98.0041V16.1384H95.4207V14.5444C95.0359 15.0391 94.4863 15.4239 93.8267 15.7537C93.1671 16.0285 92.5075 16.1934 91.738 16.1934C91.0784 16.1934 90.3639 16.0834 89.7043 15.8086C89.0447 15.5338 88.44 15.204 87.9453 14.7093C87.3957 14.2146 87.0109 13.61 86.6811 12.9504C86.3513 12.2358 86.1864 11.4663 86.1864 10.5869C86.1864 9.70741 86.3513 8.88292 86.6811 8.16836C87.0109 7.45381 87.3957 6.90415 87.9453 6.40946C88.495 5.91476 89.0447 5.58497 89.7592 5.31014C90.4188 5.03531 91.1334 4.92538 91.8479 4.92538C92.6174 4.92538 93.277 5.03531 93.8817 5.31014C94.4863 5.58497 95.0359 5.96973 95.4207 6.40946V4.87041ZM95.5856 10.4769C95.5856 10.0372 95.4757 9.59748 95.3108 9.21271C95.1459 8.82795 94.926 8.44319 94.5962 8.16836C94.3214 7.89353 93.9366 7.61871 93.5519 7.45381C93.1671 7.28891 92.6724 7.17898 92.1777 7.17898C91.683 7.17898 91.2433 7.28891 90.8585 7.45381C90.4188 7.61871 90.089 7.83857 89.7592 8.16836C89.4294 8.44319 89.2096 8.82795 89.0447 9.21271C88.8798 9.59748 88.7698 10.0372 88.7698 10.4769C88.7698 10.9167 88.8798 11.3564 89.0447 11.7961C89.2096 12.1809 89.4844 12.5656 89.7592 12.8405C90.089 13.1153 90.4188 13.3901 90.8585 13.555C91.2983 13.7199 91.738 13.8298 92.1777 13.8298C92.6724 13.8298 93.1121 13.7199 93.5519 13.555C93.9366 13.3901 94.3214 13.1703 94.5962 12.8405C94.871 12.5656 95.1459 12.1809 95.3108 11.7961C95.4757 11.3564 95.5856 10.9716 95.5856 10.4769ZM110.921 10.5319C110.921 11.3014 110.756 12.0709 110.481 12.7305C110.207 13.3901 109.767 13.9947 109.217 14.5444C108.667 15.0391 108.063 15.4788 107.348 15.7537C106.634 16.0285 105.864 16.1934 105.095 16.1934C104.27 16.1934 103.501 16.0285 102.786 15.7537C102.072 15.4788 101.467 15.0391 100.917 14.5444C100.368 14.0497 99.9829 13.4451 99.6531 12.7305C99.3782 12.0709 99.2133 11.3014 99.2133 10.5319C99.2133 9.76237 99.3782 8.99285 99.6531 8.33326C99.9279 7.67367 100.368 7.06905 100.917 6.51939C101.467 6.02469 102.072 5.58497 102.786 5.31014C103.501 5.03531 104.27 4.87041 105.095 4.87041C105.919 4.87041 106.634 5.03531 107.348 5.31014C108.063 5.58497 108.667 6.02469 109.217 6.51939C109.767 7.01408 110.152 7.61871 110.481 8.33326C110.756 8.99285 110.921 9.76237 110.921 10.5319ZM108.338 10.5319C108.338 10.0922 108.228 9.65244 108.063 9.26768C107.898 8.88292 107.678 8.55312 107.348 8.22333C107.073 7.9485 106.689 7.72864 106.304 7.56374C105.919 7.39884 105.479 7.28891 105.04 7.28891C104.6 7.28891 104.16 7.39884 103.721 7.56374C103.336 7.72864 102.951 7.9485 102.676 8.22333C102.401 8.49816 102.182 8.82795 102.017 9.26768C101.852 9.65244 101.742 10.0922 101.742 10.5319C101.742 10.9716 101.852 11.3564 102.017 11.7961C102.182 12.1809 102.401 12.5107 102.676 12.8405C102.951 13.1153 103.336 13.3352 103.721 13.5001C104.105 13.6649 104.545 13.7749 105.04 13.7749C105.534 13.7749 105.919 13.6649 106.304 13.5001C106.689 13.3352 107.073 13.1153 107.348 12.8405C107.623 12.5656 107.898 12.2358 108.063 11.7961C108.283 11.3564 108.338 10.9716 108.338 10.5319ZM66.7835 17.4576C66.3987 17.4576 66.1239 17.5675 65.904 17.7874C65.6842 18.0072 65.5742 18.337 65.5742 18.6668C65.5742 19.0516 65.6842 19.3264 65.904 19.5463C66.1239 19.7662 66.3987 19.8761 66.8385 19.8761C67.2232 19.8761 67.553 19.7662 67.7729 19.5463C67.9927 19.3264 68.1027 19.0516 68.1027 18.6668C68.1027 18.2821 67.9927 18.0072 67.7729 17.7874C67.4431 17.5675 67.1683 17.4576 66.7835 17.4576ZM21.6016 17.4576C21.2168 17.4576 20.942 17.5675 20.7221 17.7874C20.5023 18.0072 20.3923 18.337 20.3923 18.6668C20.3923 19.0516 20.5023 19.3264 20.7221 19.5463C20.942 19.7662 21.2168 19.8761 21.6565 19.8761C22.0413 19.8761 22.3711 19.7662 22.591 19.5463C22.8108 19.3264 22.9208 19.0516 22.9208 18.6668C22.9208 18.2821 22.8108 18.0072 22.591 17.7874C22.3161 17.5675 21.9863 17.4576 21.6016 17.4576ZM91.683 17.4576C91.2983 17.4576 91.0234 17.5675 90.8036 17.7874C90.5837 18.0072 90.4738 18.337 90.4738 18.6668C90.4738 19.0516 90.5837 19.3264 90.8036 19.5463C91.0234 19.7662 91.2983 19.8761 91.738 19.8761C92.1228 19.8761 92.4526 19.7662 92.6724 19.5463C92.8923 19.3264 93.0022 19.0516 93.0022 18.6668C93.0022 18.2821 92.8923 18.0072 92.6724 17.7874C92.3976 17.5675 92.0678 17.4576 91.683 17.4576ZM13.4666 0.693009C13.0269 0.693009 12.6971 0.802939 12.4223 1.07777C12.1475 1.3526 12.0375 1.68239 12.0375 2.12212C12.0375 2.56185 12.1475 2.89164 12.4223 3.16647C12.6971 3.4413 13.0269 3.55123 13.4666 3.55123C13.9064 3.55123 14.2911 3.4413 14.511 3.16647C14.7858 2.89164 14.8957 2.56185 14.8957 2.12212C14.8957 1.68239 14.7858 1.3526 14.511 1.07777C14.2911 0.802939 13.9613 0.693009 13.4666 0.693009Z" fill="#F05323"/>
</svg>
