<svg width="22" height="22" viewBox="0 0 22 22" fill="none" xmlns="http://www.w3.org/2000/svg">
<path d="M20.1264 0.433514C19.2669 1.25299 7.78712 15.5618 7.78712 15.5618C7.02998 14.6583 5.08599 12.347 4.47208 11.5906C3.85817 10.8342 3.30566 10.393 2.69179 10.3299C2.07792 10.2669 0.850128 10.456 0.29762 11.5906C-0.254889 12.7253 0.0929886 13.5867 0.29762 13.9229C1.89374 15.898 5.45431 20.3524 6.12961 21.0458C6.8049 21.7392 7.54157 22.1805 8.40101 21.9283C9.26045 21.6761 9.85389 20.9828 10.1199 20.5415C13.4554 15.2677 20.4947 4.15259 21.3542 2.63973C22.2136 1.12687 22.0294 0.709181 21.8453 0.433514C21.6611 0.157848 20.9858 -0.385964 20.1264 0.433514Z" fill="#FFBA0A"/>
</svg>
