<svg width="34" height="34" viewBox="0 0 34 34" fill="none" xmlns="http://www.w3.org/2000/svg">
<g clip-path="url(#clip0_5482_96279)">
<path d="M33.3333 17.0622C33.3333 26.267 25.8715 33.7288 16.6667 33.7288C7.4618 33.7288 0 26.267 0 17.0622C0 7.85731 7.4618 0.395508 16.6667 0.395508C25.8715 0.395508 33.3333 7.85731 33.3333 17.0622Z" fill="#4A7AFF"/>
<path d="M17.3981 33.712C26.2635 33.3292 33.3334 26.0218 33.3334 17.0623C33.3334 16.9975 33.3316 16.9329 33.3308 16.868L21.7619 5.29883L9.39209 18.2281L16.2649 25.1009L13.0959 29.4097L17.3981 33.712Z" fill="#0053BF"/>
<path d="M21.7616 5.2985V9.07251C21.7616 9.07251 17.4287 8.44359 17.4287 11.239V14.0344H21.3423L20.8532 18.2975H17.4287V29.4094H13.0957V18.2975L9.3916 18.2275V14.0344H13.0257V10.8196C13.0257 10.8196 12.7859 6.03728 17.4986 5.15888C19.4555 4.79394 21.7616 5.2985 21.7616 5.2985Z" fill="white"/>
<path d="M21.7619 9.07251V5.2985C21.7619 5.2985 19.4557 4.79394 17.4988 5.15888C17.1931 5.21585 16.9088 5.2896 16.6436 5.37683V29.4094H17.4289V18.2975H20.8532L21.3425 14.0344H17.4289C17.4289 14.0344 17.4289 14.0344 17.4289 11.239C17.4289 8.44359 21.7619 9.07251 21.7619 9.07251Z" fill="#DCE1EB"/>
</g>
<defs>
<clipPath id="clip0_5482_96279">
<rect width="33.3333" height="33.3333" fill="white" transform="translate(0 0.395508)"/>
</clipPath>
</defs>
</svg>
