<svg width="34" height="34" viewBox="0 0 34 34" fill="none" xmlns="http://www.w3.org/2000/svg">
<g clip-path="url(#clip0_5482_96276)">
<path d="M2.63908 2.66364C0.0196398 5.38447 0.555751 8.27475 0.555751 17.0553C0.555751 24.347 -0.716471 31.6567 5.94186 33.3775C8.02103 33.9123 26.4433 33.9123 28.5196 33.3748C31.2919 32.6595 33.5474 30.4109 33.8557 26.49C33.8988 25.9428 33.8988 8.17753 33.8544 7.6192C33.5266 3.44281 30.9557 1.03586 27.5682 0.548364C26.7919 0.435864 26.6363 0.40253 22.653 0.395586C8.52381 0.40253 5.42658 -0.226637 2.63908 2.66364Z" fill="url(#paint0_linear_5482_96276)"/>
<path d="M17.2197 4.75504C12.1767 4.75504 7.38778 4.30643 5.55862 9.00088C4.80306 10.9398 4.91278 13.4578 4.91278 17.0634C4.91278 20.2273 4.8114 23.2009 5.55862 25.1245C7.38362 29.8217 12.2114 29.3717 17.217 29.3717C22.0461 29.3717 27.0253 29.8745 28.8767 25.1245C29.6336 23.1662 29.5225 20.6856 29.5225 17.0634C29.5225 12.255 29.7878 9.15088 27.4558 6.82032C25.0947 4.45921 21.9017 4.75504 17.2142 4.75504H17.2197ZM16.117 6.9731C26.6364 6.95643 27.9753 5.78699 27.2364 22.0328C26.9739 27.7787 22.5989 27.1481 17.2211 27.1481C7.41556 27.1481 7.13362 26.8675 7.13362 17.0578C7.13362 7.13421 7.9114 6.97865 16.117 6.97032V6.9731ZM23.7892 9.01615C22.9739 9.01615 22.3128 9.67726 22.3128 10.4925C22.3128 11.3078 22.9739 11.9689 23.7892 11.9689C24.6045 11.9689 25.2656 11.3078 25.2656 10.4925C25.2656 9.67726 24.6045 9.01615 23.7892 9.01615ZM17.2197 10.7425C13.7295 10.7425 10.9003 13.5731 10.9003 17.0634C10.9003 20.5537 13.7295 23.3828 17.2197 23.3828C20.71 23.3828 23.5378 20.5537 23.5378 17.0634C23.5378 13.5731 20.71 10.7425 17.2197 10.7425ZM17.2197 12.9606C22.6433 12.9606 22.6503 21.1662 17.2197 21.1662C11.7975 21.1662 11.7892 12.9606 17.2197 12.9606Z" fill="white"/>
</g>
<defs>
<linearGradient id="paint0_linear_5482_96276" x1="2.703" y1="31.5999" x2="33.6828" y2="4.78722" gradientUnits="userSpaceOnUse">
<stop stop-color="#FFDD55"/>
<stop offset="0.5" stop-color="#FF543E"/>
<stop offset="1" stop-color="#C837AB"/>
</linearGradient>
<clipPath id="clip0_5482_96276">
<rect width="33.3333" height="33.3333" fill="white" transform="translate(0.555664 0.395508)"/>
</clipPath>
</defs>
</svg>
