<svg width="34" height="34" viewBox="0 0 34 34" fill="none" xmlns="http://www.w3.org/2000/svg">
<g clip-path="url(#clip0_5482_96290)">
<path d="M28.0377 33.1582C20.9086 33.9191 13.7578 33.9191 6.62862 33.1582C3.78591 32.8548 1.54058 30.6094 1.23718 27.7665C0.476278 20.6373 0.476278 13.4868 1.23718 6.35763C1.54058 3.51491 3.78591 1.26958 6.62862 0.966187C13.7578 0.205282 20.9083 0.205282 28.0375 0.966187C30.8804 1.26958 33.1258 3.51491 33.4292 6.35763C34.1901 13.4868 34.1901 20.6373 33.4292 27.7665C33.1258 30.6094 30.8807 32.8548 28.0377 33.1582Z" fill="url(#paint0_linear_5482_96290)"/>
<path d="M31.6164 7.56355C31.3473 5.04102 29.355 3.04848 26.8322 2.77916C20.506 2.10421 14.1608 2.10421 7.83455 2.77916C5.31202 3.04848 3.31947 5.04102 3.05016 7.56355C2.37521 13.8898 2.37521 20.235 3.05016 26.561C3.31947 29.0838 5.31202 31.0763 7.83455 31.3454C14.1608 32.0206 20.506 32.0206 26.832 31.3454C29.3548 31.0763 31.3473 29.0838 31.6164 26.561C32.2916 20.235 32.2916 13.8898 31.6164 7.56355Z" fill="url(#paint1_linear_5482_96290)"/>
<path d="M1.16602 27.0757C1.1889 27.3061 1.21255 27.5365 1.23722 27.7669C1.54062 30.6096 3.78595 32.8549 6.62892 33.1583C13.7581 33.9193 20.9086 33.9193 28.0378 33.1583C30.8807 32.8549 33.1258 30.6096 33.4292 27.7669C33.4539 27.5365 33.4775 27.3061 33.5007 27.0757H1.16602Z" fill="url(#paint2_linear_5482_96290)"/>
<path d="M33.07 29.274L11.5592 7.76294C11.0788 7.13606 10.323 6.73145 9.47229 6.73145C8.02118 6.73145 6.84473 7.90764 6.84473 9.35875C6.84473 10.2097 7.24959 10.9655 7.87647 11.4456L29.3125 32.882C31.0452 32.3054 32.4261 30.9741 33.07 29.274Z" fill="url(#paint3_linear_5482_96290)"/>
<path d="M11.6792 13.7095H7.26514V27.393L13.5284 33.6563C18.3659 33.8394 23.2068 33.6738 28.0377 33.1581C28.8823 33.068 29.6734 32.8053 30.3774 32.4076L11.6792 13.7095Z" fill="url(#paint4_linear_5482_96290)"/>
<path d="M26.67 14.8557C25.8625 13.9705 24.7001 13.415 23.4079 13.415C21.364 13.415 20.0449 14.133 19.2598 14.7995L18.3949 13.7095H14.3276V27.3931L20.6097 33.6751C23.0872 33.5945 25.5637 33.4221 28.0379 33.1581C30.8809 32.8547 33.126 30.6094 33.4294 27.7667C33.6323 25.866 33.7806 23.9637 33.8752 22.0609L26.67 14.8557Z" fill="url(#paint5_linear_5482_96290)"/>
<path d="M7.26514 13.71H11.679V27.3935H7.26514V13.71Z" fill="white"/>
<path d="M23.4079 13.4155C20.1733 13.4155 18.7524 15.2133 18.3949 15.7605V13.71H14.3276V27.3936H18.7417V20.5203C18.7417 18.5341 19.656 16.9891 21.3902 16.9891C23.1241 16.9891 23.4079 18.9123 23.4079 21.2771V27.3936H27.822V17.8296C27.822 15.3918 25.8457 13.4155 23.4079 13.4155Z" fill="white"/>
<path d="M12.0996 9.35901C12.0996 10.8101 10.9234 11.9863 9.47229 11.9863C8.02118 11.9863 6.84473 10.8101 6.84473 9.35901C6.84473 7.9079 8.02118 6.73145 9.47229 6.73145C10.9234 6.73145 12.0996 7.9079 12.0996 9.35901Z" fill="white"/>
</g>
<defs>
<linearGradient id="paint0_linear_5482_96290" x1="11.7338" y1="5.08211" x2="20.1648" y2="23.1204" gradientUnits="userSpaceOnUse">
<stop stop-color="#0077B5"/>
<stop offset="1" stop-color="#0066B2"/>
</linearGradient>
<linearGradient id="paint1_linear_5482_96290" x1="24.383" y1="20.8441" x2="-24.0459" y2="-5.135" gradientUnits="userSpaceOnUse">
<stop stop-color="#0066B2" stop-opacity="0"/>
<stop offset="1" stop-color="#07485E"/>
</linearGradient>
<linearGradient id="paint2_linear_5482_96290" x1="17.3332" y1="27.4677" x2="17.3332" y2="34.4344" gradientUnits="userSpaceOnUse">
<stop stop-color="#0066B2" stop-opacity="0"/>
<stop offset="1" stop-color="#07485E"/>
</linearGradient>
<linearGradient id="paint3_linear_5482_96290" x1="18.333" y1="18.2197" x2="5.86962" y2="5.75629" gradientUnits="userSpaceOnUse">
<stop stop-color="#0066B2" stop-opacity="0"/>
<stop offset="1" stop-color="#07485E"/>
</linearGradient>
<linearGradient id="paint4_linear_5482_96290" x1="25.6504" y1="29.7985" x2="0.552368" y2="18.0338" gradientUnits="userSpaceOnUse">
<stop stop-color="#0066B2" stop-opacity="0"/>
<stop offset="1" stop-color="#07485E"/>
</linearGradient>
<linearGradient id="paint5_linear_5482_96290" x1="31.7559" y1="32.3782" x2="14.2715" y2="14.8938" gradientUnits="userSpaceOnUse">
<stop stop-color="#0066B2" stop-opacity="0"/>
<stop offset="1" stop-color="#07485E"/>
</linearGradient>
<clipPath id="clip0_5482_96290">
<rect width="33.3333" height="33.3333" fill="white" transform="translate(0.666504 0.395508)"/>
</clipPath>
</defs>
</svg>
