<svg width="166" height="40" viewBox="0 0 166 40" fill="none" xmlns="http://www.w3.org/2000/svg">
<path d="M134.941 15.1007C133.512 13.4518 130.929 13.3418 129.445 14.716C128.565 15.5405 125.872 16.255 124.718 16.6947C123.618 17.1894 121.804 18.0139 120.485 18.5086C119.386 18.5086 115.758 17.5742 115.483 18.0689C115.373 18.3437 115.208 18.5636 114.989 18.7834C114.549 19.2232 114.219 19.6079 114.659 19.7728C115.099 19.9377 119.496 19.7728 120.485 20.3775C121.859 21.7516 125.762 23.3456 129.115 22.8509C133.622 22.1913 134.831 19.553 135.216 17.0245V17.0795C135.216 17.0795 136.37 16.1451 136.315 15.9252C136.37 15.7054 134.996 15.1007 134.941 15.1007Z" fill="#F05323"/>
<path d="M124.388 17.4644C124.498 17.4094 124.553 17.3544 124.663 17.2995C125.707 16.6948 128.345 15.5955 129.06 14.7161C129.28 14.4413 129.61 14.1664 129.939 13.9466C129.72 11.583 130.269 8.94467 130.599 8.23011C131.149 7.13079 130.159 6.9659 129.335 7.51556C128.345 8.17515 128.51 9.60426 128.51 9.60426C128.51 9.60426 128.071 8.44998 127.411 8.94467C126.696 9.49433 127.026 10.5936 127.026 10.5936C127.026 10.5936 126.367 9.93405 125.817 10.4287C125.157 11.0883 125.377 12.0777 125.377 12.0777C125.377 12.0777 124.663 11.1983 124.168 12.1877C123.893 12.7923 124.058 13.5068 124.058 13.5068C124.058 13.5068 123.069 12.8472 123.014 14.6062C123.014 15.2657 123.289 16.0902 123.563 16.6399C123.783 16.9147 124.113 17.1895 124.388 17.4644Z" fill="#F58220"/>
<path d="M131.753 15.2104C131.588 15.2104 131.423 15.2104 131.258 15.2104C130.709 15.7051 130.434 16.4197 130.929 17.2442C131.918 18.8932 134.062 18.3985 134.941 17.0793C134.282 16.0349 132.742 15.3753 131.753 15.2104Z" fill="white"/>
<path d="M133.017 15.9798C133.127 16.2546 133.402 16.3646 133.677 16.2546C133.952 16.1447 134.062 15.8699 133.952 15.595C133.842 15.3202 133.567 15.2103 133.292 15.3202C133.072 15.4301 132.907 15.7599 133.017 15.9798Z" fill="#FE2D0F"/>
<path d="M133.182 15.9799C133.292 16.1997 133.512 16.2547 133.677 16.1997C133.896 16.0898 133.951 15.8699 133.896 15.705C133.787 15.4852 133.567 15.4302 133.402 15.4852C133.182 15.5401 133.127 15.76 133.182 15.9799Z" fill="black"/>
<path d="M133.347 15.8153C133.347 15.8702 133.402 15.8702 133.457 15.8702C133.512 15.8702 133.512 15.8153 133.512 15.7603C133.512 15.7053 133.457 15.7053 133.402 15.7053C133.347 15.7053 133.292 15.7603 133.347 15.8153Z" fill="#FFF9FA"/>
<path d="M134.832 16.2548C134.941 16.5297 135.271 17.0793 135.271 17.0793C135.271 17.0793 136.426 16.1449 136.371 15.925L134.832 16.2548C134.832 16.1999 134.832 16.1999 134.832 16.2548Z" fill="#FAA61A"/>
<path d="M130.434 17.9039C130.434 17.9039 126.202 15.8701 123.783 8.33981C123.124 6.69084 121.53 6.41601 120.98 7.62525C120.65 8.44974 121.42 9.87885 121.42 9.87885C121.42 9.87885 120.32 8.88947 119.716 10.3186C119.331 11.5828 121.255 12.2424 121.255 12.2424C121.255 12.2424 119.991 12.0775 119.771 13.1218C119.496 14.441 120.76 14.9357 120.76 14.9357C120.76 14.9357 119.276 15.2655 119.606 16.4748C119.936 17.3542 121.145 17.5191 121.145 17.5191C121.145 17.5191 119.991 17.9039 120.101 18.7284C120.101 18.8383 120.266 19.278 120.76 19.6078C122.244 20.4873 125.322 20.5422 127.686 19.8277C128.95 19.4429 131.369 18.4535 130.434 17.9039Z" fill="#FAA61A"/>
<path d="M145.495 4.38235C145.495 4.38235 143.681 4.38235 144.011 5.5916C144.396 6.91078 146.1 7.02071 146.1 7.02071C146.1 7.02071 145.825 7.13064 145.55 7.3505C145.055 7.6803 144.835 8.28492 145.055 8.83458C145.055 8.88955 145.11 8.94451 145.11 8.99948C145.275 9.27431 145.55 9.38424 145.77 9.43921C146.374 9.54914 148.243 9.05444 149.837 8.61472C151.376 8.22996 155.004 7.40547 156.268 6.52601C156.488 6.36112 156.763 6.25119 157.038 6.08629C156.653 5.86642 156.103 5.70153 155.499 5.75649C151.486 5.81146 146.979 2.56847 144.78 0.589704C143.626 -0.784442 142.802 0.479772 143.131 1.96385C143.516 3.77772 145.495 4.38235 145.495 4.38235Z" fill="#F58220"/>
<path d="M163.908 6.25093C162.039 4.05229 158.631 3.8874 156.652 5.70127C155.498 6.74562 151.87 7.68004 150.386 8.28466C148.902 8.88929 146.484 9.9886 144.78 10.6482C143.351 10.5932 138.569 9.32901 138.184 9.9886C138.019 10.3184 137.799 10.6482 137.524 10.923C136.92 11.4727 136.48 11.9674 137.085 12.2422C137.634 12.4621 143.461 12.2972 144.78 13.0667C147.198 15.2653 151.486 16.5845 156.048 16.1448C162.204 15.5402 163.688 12.1323 164.238 8.83432V8.88929C164.238 8.88929 165.777 7.62507 165.722 7.35024C165.777 7.07541 163.963 6.25093 163.908 6.25093Z" fill="#F05323"/>
<path d="M163.799 7.73514C163.963 8.1199 164.348 8.83446 164.348 8.83446C164.348 8.83446 165.832 7.57024 165.832 7.29541L163.799 7.73514C163.744 7.73514 163.744 7.73514 163.799 7.73514Z" fill="#FAA61A"/>
<path d="M155.224 11.1981C153.849 11.6378 153.08 11.9126 147.473 12.7921C145.66 13.0669 145.495 13.3418 145.11 13.7265C144.505 14.7709 146.649 14.606 146.649 14.606C146.649 14.606 145.22 15.6503 145.44 16.255C145.66 16.8596 146.979 16.7496 146.979 16.7496C146.979 16.7496 146.154 18.0688 146.539 18.8383C147.144 19.7728 148.628 18.4536 148.628 18.4536C148.628 18.4536 147.693 19.9926 149.067 20.8171C149.892 21.3118 151.376 20.0476 151.376 20.0476C151.376 20.0476 150.826 22.576 152.365 23.2906C153.465 23.6753 154.069 23.0157 154.289 22.1913C154.399 21.9714 154.619 20.1575 154.674 19.388C154.949 17.1344 155.993 14.606 158.302 11.2531C158.906 10.2637 157.257 10.5385 155.224 11.1981Z" fill="#FAA61A"/>
<path d="M159.676 6.36112C159.401 6.30615 159.126 6.30615 158.906 6.30615C158.192 6.96574 157.862 7.95513 158.467 8.99948C159.786 11.2531 162.644 10.5385 163.853 8.83458C163.029 7.46044 160.995 6.52601 159.676 6.36112Z" fill="white"/>
<path d="M161.38 7.40552C161.49 7.73532 161.875 7.90022 162.205 7.79028C162.534 7.68035 162.699 7.29559 162.589 6.9658C162.479 6.636 162.095 6.4711 161.765 6.58104C161.435 6.69097 161.27 7.07573 161.38 7.40552Z" fill="#FE2D0F"/>
<path d="M161.6 7.35064C161.71 7.62547 161.985 7.7354 162.259 7.62547C162.534 7.51554 162.644 7.24071 162.534 6.96588C162.424 6.69105 162.149 6.58112 161.875 6.69105C161.6 6.80098 161.49 7.07581 161.6 7.35064Z" fill="black"/>
<path d="M161.765 7.13078C161.765 7.18575 161.875 7.24071 161.93 7.18575C161.985 7.18575 162.039 7.07581 161.985 7.02085C161.985 6.96588 161.875 6.91092 161.82 6.96588C161.765 7.02085 161.765 7.07581 161.765 7.13078Z" fill="#FFF9FA"/>
<path d="M40.6748 33.2942H41.6642L42.8734 36.867L44.0277 33.2942H45.0171L43.3681 38.2961H42.3787L40.6748 33.2942Z" fill="#333333"/>
<path d="M44.687 31.7551H45.5665L46.336 32.9094H45.7314L44.687 31.7551ZM45.5665 33.2942H46.5009V38.2961H45.5665V33.2942Z" fill="#333333"/>
<path d="M50.349 34.1736H49.0298V33.2942H52.6575V34.1736H51.3384V38.2961H50.4039V34.1736H50.349Z" fill="#333333"/>
<path d="M56.8347 33.844V36.5373C56.8347 36.8121 56.7797 37.087 56.7248 37.3068C56.6148 37.5267 56.5049 37.6916 56.34 37.8565C56.1751 38.0214 56.0102 38.1313 55.7904 38.1863C55.5705 38.2412 55.3506 38.2962 55.0758 38.2962C54.801 38.2962 54.5811 38.2412 54.3612 38.1863C54.1414 38.1313 53.9765 38.0214 53.8116 37.8565C53.6467 37.6916 53.5368 37.5267 53.4268 37.3068C53.3169 37.087 53.3169 36.8121 53.3169 36.5373V33.2943H54.2513V36.5923C54.2513 36.7022 54.2513 36.8121 54.3063 36.9221C54.3612 37.032 54.4162 37.1419 54.4712 37.1969C54.5261 37.2519 54.6361 37.3618 54.746 37.3618C54.8559 37.4168 54.9659 37.4168 55.0758 37.4168C55.1857 37.4168 55.2957 37.4168 55.4056 37.3618C55.5155 37.3068 55.6255 37.2519 55.6804 37.1969C55.7354 37.1419 55.8453 37.032 55.8453 36.9221C55.9003 36.8121 55.9003 36.7022 55.9003 36.5923V33.2943H56.7248C56.7797 33.2943 56.8347 33.2394 56.8347 33.2394C56.8897 33.1844 56.9446 32.9645 56.8897 32.6897H57.5493C57.5493 33.1844 57.4393 33.5692 57.2195 33.734C57.1095 33.734 56.9996 33.844 56.8347 33.844Z" fill="#333333"/>
<path d="M61.5622 33.7343C61.6171 33.7893 61.7271 33.8443 61.782 33.9542C62.0019 34.1741 62.2218 34.4489 62.3317 34.7787C62.4416 35.1085 62.5516 35.4383 62.5516 35.7681C62.5516 36.0979 62.4966 36.4826 62.3317 36.7574C62.2218 37.0872 62.0019 37.3621 61.782 37.5819C61.5622 37.8018 61.2873 38.0217 60.9575 38.1316C60.6278 38.2415 60.298 38.3515 59.9682 38.3515C59.6384 38.3515 59.2536 38.2965 58.9788 38.1316C58.649 38.0217 58.3741 37.8018 58.1543 37.5819C57.9344 37.3621 57.7695 37.0872 57.6046 36.7574C57.4947 36.4277 57.3848 36.0979 57.3848 35.7681C57.3848 35.4383 57.4397 35.0535 57.6046 34.7787C57.7146 34.4489 57.9344 34.1741 58.1543 33.9542C58.3741 33.7343 58.649 33.5145 58.9788 33.4045C59.3086 33.2946 59.6384 33.1847 59.9682 33.1847C60.243 33.1847 60.5728 33.2396 60.7926 33.3496C61.0125 33.3496 61.1774 33.2946 61.2873 33.1847C61.3423 33.1297 61.3973 32.9098 61.3423 32.635H62.0019C62.0019 33.1297 61.892 33.5145 61.6721 33.6794C61.6721 33.6794 61.6171 33.7343 61.5622 33.7343ZM59.9682 37.417C60.188 37.417 60.4079 37.3621 60.6277 37.3071C60.8476 37.2521 61.0125 37.0872 61.1224 36.9773C61.2873 36.8124 61.3973 36.6475 61.4522 36.4277C61.5622 36.2078 61.5622 35.9879 61.5622 35.7681C61.5622 35.5482 61.5072 35.3283 61.4522 35.1085C61.3423 34.8886 61.2324 34.7237 61.1224 34.5588C60.9575 34.3939 60.7926 34.284 60.6277 34.229C60.4628 34.1741 60.243 34.1191 59.9682 34.1191C59.7483 34.1191 59.5284 34.1741 59.3086 34.229C59.0887 34.284 58.9238 34.4489 58.8139 34.5588C58.649 34.7237 58.539 34.8886 58.4841 35.1085C58.3742 35.3283 58.3741 35.5482 58.3741 35.7681C58.3741 35.9879 58.4291 36.2078 58.4841 36.4277C58.594 36.6475 58.7039 36.8124 58.8139 36.9773C58.9788 37.1422 59.1437 37.2521 59.3086 37.3071C59.4735 37.3621 59.7483 37.417 59.9682 37.417Z" fill="#333333"/>
<path d="M63.1562 33.2942H64.2006L66.3443 36.7021V33.2942H67.2787V38.2961H66.2893L64.0907 34.7783V38.2961H63.1562V33.2942Z" fill="#333333"/>
<path d="M70.4662 38.2414C70.0815 38.2414 69.7517 38.1865 69.4219 38.0216C69.0921 37.9116 68.8172 37.6918 68.5974 37.4719C68.3775 37.252 68.2126 36.9772 68.0477 36.6474C67.9378 36.3176 67.8828 36.0428 67.8828 35.713C67.8828 35.3832 67.9378 35.0534 68.0477 34.7236C68.1576 34.3938 68.3775 34.174 68.5974 33.9541C68.8172 33.7342 69.0921 33.5693 69.4219 33.4044C69.7517 33.2945 70.0815 33.1846 70.4662 33.1846C70.741 33.1846 70.9609 33.2395 71.1808 33.2945C71.4006 33.3495 71.6205 33.4594 71.8404 33.5693C72.0602 33.6793 72.2251 33.7892 72.335 33.9541C72.4999 34.119 72.6099 34.2839 72.7198 34.4488L71.8953 34.8885C71.7304 34.6137 71.5655 34.4488 71.2907 34.2839C71.0708 34.174 70.741 34.064 70.4662 34.064C70.2464 34.064 70.0265 34.119 69.8066 34.174C69.5868 34.2839 69.4219 34.3938 69.3119 34.5038C69.147 34.6686 69.0371 34.8335 68.9821 34.9984C68.9272 35.2183 68.8722 35.3832 68.8722 35.6031C68.8722 35.8229 68.9272 36.0428 68.9821 36.2077C69.0371 36.4276 69.202 36.5925 69.3119 36.7024C69.4768 36.8673 69.6417 36.9772 69.8616 37.0322C70.0814 37.1421 70.3013 37.1421 70.5212 37.1421C70.9059 37.1421 71.1808 37.0322 71.4556 36.8673C71.7304 36.6474 71.8953 36.4276 71.9503 36.0978H70.3563V35.2183H72.9397V35.6031C72.9397 35.9329 72.8847 36.2627 72.7748 36.5375C72.6648 36.8673 72.4999 37.0871 72.2801 37.307C72.0602 37.5269 71.7854 37.6918 71.5106 37.8567C71.2357 38.0216 70.851 38.2414 70.4662 38.2414Z" fill="#333333"/>
<path d="M75.4131 33.2942H76.3475V37.4166H78.1614V38.2961H75.4131V33.2942Z" fill="#333333"/>
<path d="M80.4147 33.2942H81.3491L83.108 38.2961H82.1186L81.7888 37.4166H79.865L79.5352 38.2961H78.6558L80.4147 33.2942ZM80.2498 36.4822H81.569L80.9094 34.6134L80.2498 36.4822Z" fill="#333333"/>
<path d="M83.7681 33.2942H84.7025V38.2961H83.7681V33.2942Z" fill="#333333"/>
<path d="M87.2856 38.2412V33.2393H88.8797C89.1545 33.2393 89.4293 33.2942 89.6492 33.3492C89.869 33.4591 90.0889 33.5691 90.2538 33.679C90.4187 33.8439 90.5286 34.0088 90.6386 34.2286C90.7485 34.4485 90.7485 34.6684 90.7485 34.9432C90.7485 35.218 90.6935 35.5478 90.5286 35.7677C90.3637 36.0425 90.1988 36.2074 89.924 36.3723L90.9134 38.1862H89.869L89.0445 36.6471H88.2201V38.1862H87.2856V38.2412ZM88.8247 35.8776C88.9896 35.8776 89.1545 35.8776 89.3194 35.8227C89.4293 35.7677 89.5392 35.7127 89.6492 35.6028C89.7041 35.4929 89.7591 35.4379 89.8141 35.328C89.869 35.218 89.869 35.1081 89.869 34.9982C89.869 34.7233 89.8141 34.5584 89.6492 34.3935C89.4843 34.2286 89.2095 34.1737 88.8797 34.1737H88.275V35.9326H88.8247V35.8776Z" fill="#333333"/>
<path d="M93.8817 38.2411C93.5519 38.2411 93.1672 38.1861 92.8923 38.0212C92.5626 37.9113 92.2877 37.6914 92.0679 37.4716C91.848 37.2517 91.6831 36.9769 91.5182 36.7021C91.4083 36.3723 91.2983 36.0974 91.2983 35.7127C91.2983 35.3829 91.3533 35.0531 91.5182 34.7233C91.6281 34.3935 91.848 34.1736 92.0679 33.9538C92.2877 33.7339 92.5626 33.569 92.8923 33.4041C93.2221 33.2392 93.5519 33.1842 93.8817 33.1842C94.2115 33.1842 94.5963 33.2392 94.8711 33.4041C95.1459 33.569 95.4757 33.7339 95.6956 33.9538C95.9155 34.1736 96.1353 34.4485 96.2453 34.7233C96.3552 35.0531 96.4651 35.3279 96.4651 35.7127C96.4651 36.0425 96.4102 36.3723 96.2453 36.7021C96.1353 37.0318 95.9155 37.2517 95.6956 37.4716C95.4757 37.6914 95.2009 37.8563 94.8711 38.0212C94.5413 38.1861 94.2115 38.2411 93.8817 38.2411ZM93.8817 37.3616C94.1016 37.3616 94.3215 37.3067 94.5413 37.2517C94.7612 37.1418 94.9261 37.0318 95.036 36.9219C95.2009 36.757 95.3108 36.5921 95.3658 36.4272C95.4757 36.2074 95.4757 36.0425 95.4757 35.8226C95.4757 35.6027 95.4208 35.3829 95.3658 35.218C95.2559 34.9981 95.146 34.8332 95.036 34.7233C94.8711 34.5584 94.7062 34.4485 94.5413 34.3935C94.3764 34.3385 94.1566 34.2836 93.8817 34.2836C93.6619 34.2836 93.442 34.3385 93.2221 34.3935C93.0023 34.4485 92.8374 34.6134 92.7275 34.7233C92.5626 34.8882 92.4526 35.0531 92.3977 35.218C92.2877 35.4378 92.2877 35.6027 92.2877 35.8226C92.2877 36.0425 92.3427 36.2623 92.3977 36.4272C92.5076 36.6471 92.6175 36.812 92.7275 36.9219C92.8924 37.0868 93.0572 37.1967 93.2221 37.2517C93.442 37.3067 93.6619 37.3616 93.8817 37.3616ZM93.6069 31.7551H94.1566L94.981 32.9094H94.2665L93.8817 32.3048L93.497 32.9094H92.7824L93.6069 31.7551ZM93.3321 39.3954C93.3321 39.2305 93.387 39.0656 93.497 38.9557C93.6069 38.8457 93.7168 38.7908 93.9367 38.7908C94.1016 38.7908 94.2665 38.8457 94.3764 38.9557C94.4864 39.0656 94.5413 39.1755 94.5413 39.3954C94.5413 39.6152 94.4864 39.7252 94.3764 39.8351C94.2665 39.945 94.1566 40 93.9367 40C93.7718 40 93.6069 39.945 93.497 39.8351C93.3321 39.7252 93.3321 39.6152 93.3321 39.3954Z" fill="#333333"/>
<path d="M97.0146 33.2942H98.059L100.203 36.7021V33.2942H101.137V38.2961H100.148L97.9491 34.7783V38.2961H97.0146V33.2942Z" fill="#333333"/>
<path d="M104.38 38.2414C103.996 38.2414 103.666 38.1865 103.336 38.0216C103.006 37.9116 102.731 37.6918 102.511 37.4719C102.292 37.252 102.127 36.9772 101.962 36.6474C101.852 36.3176 101.797 36.0428 101.797 35.713C101.797 35.3832 101.852 35.0534 101.962 34.7236C102.072 34.3938 102.292 34.174 102.511 33.9541C102.731 33.7342 103.006 33.5693 103.336 33.4044C103.666 33.2945 103.996 33.1846 104.38 33.1846C104.655 33.1846 104.875 33.2395 105.095 33.2945C105.315 33.3495 105.535 33.4594 105.754 33.5693C105.974 33.6793 106.139 33.7892 106.249 33.9541C106.359 34.119 106.524 34.2839 106.634 34.4488L105.809 34.8885C105.644 34.6137 105.48 34.4488 105.205 34.2839C104.985 34.174 104.655 34.064 104.38 34.064C104.16 34.064 103.941 34.119 103.721 34.174C103.501 34.2839 103.336 34.3938 103.226 34.5038C103.061 34.6686 102.951 34.8335 102.896 34.9984C102.841 35.2183 102.786 35.3832 102.786 35.6031C102.786 35.8229 102.841 36.0428 102.896 36.2077C102.951 36.4276 103.116 36.5925 103.226 36.7024C103.391 36.8673 103.556 36.9772 103.776 37.0322C103.996 37.1421 104.215 37.1421 104.435 37.1421C104.82 37.1421 105.095 37.0322 105.37 36.8673C105.644 36.6474 105.809 36.4276 105.864 36.0978H104.27V35.2183H106.854V35.6031C106.854 35.9329 106.799 36.2627 106.689 36.5375C106.579 36.8673 106.414 37.0871 106.194 37.307C105.974 37.5269 105.699 37.6918 105.425 37.8567C105.15 38.0216 104.765 38.2414 104.38 38.2414Z" fill="#333333"/>
<path d="M109.272 33.2942H110.206L111.69 35.3829L113.284 33.2942H114.164V38.2961H113.23V34.7783L111.69 36.867L110.206 34.8332V38.2961H109.272V33.2942Z" fill="#333333"/>
<path d="M118.891 33.734C118.946 33.789 119.056 33.8439 119.111 33.9539C119.331 34.1737 119.551 34.4486 119.661 34.7784C119.771 35.1081 119.881 35.4379 119.881 35.7677C119.881 36.0975 119.826 36.4823 119.661 36.7571C119.551 37.0869 119.331 37.3617 119.111 37.5816C118.891 37.8015 118.616 38.0213 118.287 38.1313C117.957 38.2412 117.627 38.3511 117.297 38.3511C116.967 38.3511 116.583 38.2962 116.308 38.1313C115.978 38.0213 115.703 37.8015 115.483 37.5816C115.264 37.3617 115.099 37.0869 114.934 36.7571C114.824 36.4273 114.714 36.0975 114.714 35.7677C114.714 35.4379 114.769 35.0532 114.934 34.7784C115.044 34.4486 115.264 34.1737 115.483 33.9539C115.703 33.734 115.978 33.5141 116.308 33.4042C116.638 33.2943 116.967 33.1843 117.297 33.1843C117.572 33.1843 117.902 33.2393 118.122 33.3492C118.342 33.3492 118.507 33.2943 118.616 33.1843C118.671 33.1294 118.726 32.9095 118.671 32.6347H119.331C119.331 33.1294 119.221 33.5141 119.001 33.679C119.001 33.679 118.946 33.734 118.891 33.734ZM117.297 37.4167C117.517 37.4167 117.737 37.3617 117.957 37.3068C118.177 37.2518 118.342 37.0869 118.452 36.977C118.616 36.8121 118.726 36.6472 118.781 36.4273C118.891 36.2075 118.891 35.9876 118.891 35.7677C118.891 35.5479 118.836 35.328 118.781 35.1081C118.671 34.8883 118.561 34.7234 118.452 34.5585C118.287 34.3936 118.122 34.2837 117.957 34.2287C117.792 34.1737 117.572 34.1188 117.297 34.1188C117.077 34.1188 116.858 34.1737 116.638 34.2287C116.418 34.2837 116.253 34.4486 116.143 34.5585C115.978 34.7234 115.868 34.8883 115.813 35.1081C115.703 35.328 115.703 35.5479 115.703 35.7677C115.703 35.9876 115.758 36.2075 115.813 36.4273C115.923 36.6472 116.033 36.8121 116.143 36.977C116.308 37.1419 116.473 37.2518 116.638 37.3068C116.803 37.3617 117.077 37.4167 117.297 37.4167ZM117.242 31.5903C117.352 31.5903 117.407 31.5903 117.517 31.6453C117.572 31.6453 117.682 31.7003 117.737 31.7552C117.792 31.8102 117.847 31.8652 117.902 31.9201C117.957 31.9751 117.957 32.085 117.957 32.195C117.957 32.3049 117.957 32.3599 117.902 32.4698C117.847 32.5248 117.847 32.5797 117.792 32.6347C117.737 32.6896 117.682 32.6897 117.682 32.7446C117.627 32.7446 117.627 32.7996 117.627 32.7996C117.627 32.7996 117.627 32.8545 117.627 32.9645H117.132C117.132 32.7996 117.132 32.6347 117.187 32.5797C117.242 32.5248 117.297 32.4698 117.297 32.4148C117.352 32.3599 117.352 32.3599 117.407 32.3049L117.462 32.2499V32.195C117.462 32.14 117.407 32.085 117.297 32.085C117.242 32.085 117.242 32.085 117.187 32.14C117.132 32.14 117.077 32.2499 117.022 32.4148L116.528 32.195C116.638 31.9751 116.748 31.8102 116.858 31.7552C116.912 31.5903 117.077 31.5903 117.242 31.5903Z" fill="#333333"/>
<path d="M8.46474 15.8704H11.1581L6.9257 27.1384H4.28734L0 15.8704H2.69333L5.60652 23.7855L8.46474 15.8704ZM12.2024 27.1384H14.8408V15.8704H12.2024V27.1384ZM27.2631 19.1134C27.5379 19.773 27.7028 20.4875 27.7028 21.2571V22.1915H18.5235C18.6884 22.961 19.0731 23.6206 19.6778 24.1153C20.2824 24.61 21.0519 24.8298 21.9863 24.8298C22.7009 24.8298 23.3605 24.6649 23.9101 24.2802C24.4598 23.8954 24.8446 23.4557 25.1194 22.8511L27.2631 24.0603C26.7684 24.9947 26.1088 25.7093 25.2293 26.259C24.3499 26.8086 23.3055 27.0834 22.0413 27.0834C21.1618 27.0834 20.3374 26.9185 19.6228 26.6437C18.9082 26.3689 18.2487 25.9292 17.754 25.4345C17.2593 24.9398 16.8195 24.3352 16.5447 23.6206C16.2699 22.961 16.105 22.1915 16.105 21.422C16.105 20.6524 16.2699 19.8829 16.5447 19.1684C16.8195 18.4538 17.2593 17.8492 17.8089 17.3545C18.3586 16.8598 18.9632 16.4201 19.6778 16.1452C20.3923 15.8704 21.1618 15.7055 21.9863 15.7055C22.8108 15.7055 23.5803 15.8154 24.2949 16.0903C25.0095 16.3651 25.6141 16.7499 26.1088 17.2446C26.5485 17.9041 26.9333 18.4538 27.2631 19.1134ZM25.0644 20.0478C24.8446 19.4432 24.5148 18.9485 23.9651 18.6187C23.4154 18.2889 22.7559 18.124 21.9314 18.124C21.1618 18.124 20.4473 18.2889 19.8976 18.6187C19.348 18.9485 18.9082 19.4432 18.6884 19.9929H25.0644V20.0478ZM21.8764 13.0672L23.0307 14.7711H25.0095L22.7009 11.4731H21.1069L18.7983 14.7711H20.7771L21.8764 13.0672ZM33.0894 12.4076L30.4511 14.1665V15.8704H28.5273V18.179H30.4511V22.4113C30.4511 23.2908 30.506 24.0603 30.6709 24.6649C30.8358 25.2696 31.0557 25.7643 31.3855 26.0941C31.7153 26.4239 32.21 26.6987 32.7596 26.8636C33.3643 27.0285 34.0788 27.0834 34.9583 27.0834H35.343V24.6649C34.8483 24.6649 34.4636 24.6649 34.1338 24.61C33.859 24.555 33.5841 24.4451 33.4192 24.2802C33.2543 24.1153 33.1444 23.8954 33.0894 23.5656C33.0345 23.2908 33.0345 22.8511 33.0345 22.3564V18.124H35.343V15.8154H33.0345V12.4076H33.0894ZM48.0401 19.1134C48.3699 19.828 48.5348 20.5975 48.5348 21.5319C48.5348 22.4113 48.3699 23.2358 48.0401 23.8954C47.7104 24.61 47.3256 25.1596 46.7759 25.6543C46.2812 26.149 45.6766 26.4788 45.017 26.7537C44.3574 27.0285 43.6978 27.1384 42.9833 27.1384C42.2138 27.1384 41.4992 27.0285 40.8396 26.7537C40.18 26.4788 39.6853 26.0941 39.3006 25.5994V38.3514H36.7172V15.8704H39.3006V17.5194C39.6853 17.0247 40.235 16.585 40.8396 16.3101C41.4992 15.9803 42.1588 15.8704 42.9283 15.8704C43.6429 15.8704 44.3025 15.9803 44.9621 16.2552C45.6216 16.53 46.2263 16.8598 46.721 17.3545C47.2157 17.8492 47.7104 18.4538 48.0401 19.1134ZM45.9514 21.4769C45.9514 21.0372 45.8415 20.5975 45.6766 20.2127C45.5117 19.828 45.2369 19.4982 44.9621 19.1684C44.6323 18.8935 44.3025 18.6737 43.8627 18.4538C43.478 18.2889 42.9833 18.179 42.5436 18.179C42.0489 18.179 41.6091 18.2889 41.1694 18.4538C40.7847 18.6187 40.3999 18.8386 40.1251 19.1684C39.8502 19.4432 39.5754 19.828 39.4105 20.2127C39.2456 20.5975 39.1357 21.0372 39.1357 21.4769C39.1357 21.9167 39.2456 22.3564 39.4105 22.7411C39.5754 23.1259 39.7953 23.5107 40.1251 23.7855C40.3999 24.0603 40.7847 24.3352 41.1694 24.5001C41.5542 24.6649 42.0489 24.7749 42.5436 24.7749C43.0383 24.7749 43.478 24.6649 43.8627 24.5001C44.2475 24.3352 44.6323 24.1153 44.9621 23.7855C45.2919 23.5107 45.5117 23.1259 45.6766 22.7411C45.8415 22.4113 45.9514 21.9716 45.9514 21.4769ZM55.6254 15.8704C54.9109 15.8704 54.2513 16.0353 53.7016 16.3101C53.152 16.585 52.6573 16.9697 52.2725 17.4644V12.9023H49.6891V27.1384H52.3275V21.0922C52.3275 20.5975 52.3824 20.2127 52.5473 19.828C52.6573 19.4432 52.8771 19.1134 53.097 18.8935C53.3169 18.6187 53.5917 18.4538 53.9215 18.3439C54.2513 18.2339 54.5811 18.124 54.9658 18.124C55.7903 18.124 56.4499 18.3988 56.8896 18.8935C57.3294 19.3882 57.5492 20.0478 57.5492 20.9273V27.1934H60.1876V20.5975C60.1876 19.1134 59.8028 17.9591 58.9783 17.1346C58.1539 16.3101 57.0545 15.8704 55.6254 15.8704ZM69.257 21.9167C69.257 22.906 69.0371 23.6206 68.5424 24.1153C68.0477 24.61 67.4981 24.8848 66.7285 24.8848C65.904 24.8848 65.2994 24.61 64.9147 24.1153C64.5299 23.6206 64.31 22.961 64.31 22.0816V15.8704H61.6717V22.4113C61.6717 23.8954 62.0564 25.0497 62.826 25.8742C63.5955 26.6987 64.6398 27.1384 66.014 27.1384C66.7285 27.1384 67.3881 27.0285 67.8828 26.7537C68.4325 26.4788 68.8722 26.149 69.257 25.7093V27.1384H71.8404V15.8704H69.257V21.9167ZM84.8673 13.8367H86.0215V15.2658H84.8673V27.1934H82.2839V25.5994C81.8991 26.0941 81.3494 26.4788 80.6899 26.8086C80.0303 27.0834 79.3707 27.2483 78.6012 27.2483C77.9416 27.2483 77.227 27.1384 76.5674 26.8636C75.9078 26.5888 75.3032 26.259 74.8085 25.7643C74.2589 25.2696 73.8741 24.6649 73.5443 24.0054C73.2145 23.2908 73.0496 22.5213 73.0496 21.6418C73.0496 20.7624 73.2145 19.9379 73.5443 19.2233C73.8741 18.5088 74.2589 17.9591 74.8085 17.4644C75.3582 16.9697 75.9078 16.6399 76.6224 16.3651C77.282 16.0903 77.9965 15.9803 78.7111 15.9803C79.4257 15.9803 80.1402 16.1452 80.7448 16.4201C81.3494 16.6949 81.8991 17.0797 82.2839 17.5744V15.3757H81.0197V13.9466H82.2839V13.0672H84.9222V13.8367H84.8673ZM82.3938 21.4769C82.3938 21.0372 82.2839 20.5975 82.119 20.2127C81.9541 19.828 81.7342 19.4432 81.4044 19.1684C81.1296 18.8935 80.7448 18.6187 80.3601 18.4538C79.9753 18.2889 79.4806 18.179 78.9859 18.179C78.4912 18.179 78.0515 18.2889 77.6667 18.4538C77.227 18.6187 76.8972 18.8386 76.5674 19.1684C76.2376 19.4432 76.0178 19.828 75.8529 20.2127C75.688 20.5975 75.578 21.0372 75.578 21.4769C75.578 21.9167 75.688 22.3564 75.8529 22.7961C76.0178 23.1809 76.2926 23.5656 76.5674 23.8405C76.8972 24.1153 77.227 24.3901 77.6667 24.555C78.1065 24.7199 78.5462 24.8298 78.9859 24.8298C79.4806 24.8298 79.9203 24.7199 80.3601 24.555C80.7448 24.3901 81.1296 24.1703 81.4044 23.8405C81.6792 23.5656 81.9541 23.1809 82.119 22.7961C82.3388 22.3564 82.3938 21.9716 82.3938 21.4769ZM95.4207 15.8704H98.0041V27.1384H95.4207V25.5444C95.0359 26.0391 94.4863 26.4239 93.8267 26.7537C93.1671 27.0285 92.5075 27.1934 91.738 27.1934C91.0784 27.1934 90.3639 27.0834 89.7043 26.8086C89.0447 26.5338 88.44 26.204 87.9453 25.7093C87.3957 25.2146 87.0109 24.61 86.6811 23.9504C86.3513 23.2358 86.1864 22.4663 86.1864 21.5869C86.1864 20.7074 86.3513 19.8829 86.6811 19.1684C87.0109 18.4538 87.3957 17.9041 87.9453 17.4095C88.495 16.9148 89.0447 16.585 89.7592 16.3101C90.4188 16.0353 91.1334 15.9254 91.8479 15.9254C92.6174 15.9254 93.277 16.0353 93.8817 16.3101C94.4863 16.585 95.0359 16.9697 95.4207 17.4095V15.8704ZM95.5856 21.4769C95.5856 21.0372 95.4757 20.5975 95.3108 20.2127C95.1459 19.828 94.926 19.4432 94.5962 19.1684C94.3214 18.8935 93.9366 18.6187 93.5519 18.4538C93.1671 18.2889 92.6724 18.179 92.1777 18.179C91.683 18.179 91.2433 18.2889 90.8585 18.4538C90.4188 18.6187 90.089 18.8386 89.7592 19.1684C89.4294 19.4432 89.2096 19.828 89.0447 20.2127C88.8798 20.5975 88.7698 21.0372 88.7698 21.4769C88.7698 21.9167 88.8798 22.3564 89.0447 22.7961C89.2096 23.1809 89.4844 23.5656 89.7592 23.8405C90.089 24.1153 90.4188 24.3901 90.8585 24.555C91.2983 24.7199 91.738 24.8298 92.1777 24.8298C92.6724 24.8298 93.1121 24.7199 93.5519 24.555C93.9366 24.3901 94.3214 24.1703 94.5962 23.8405C94.871 23.5656 95.1459 23.1809 95.3108 22.7961C95.4757 22.3564 95.5856 21.9716 95.5856 21.4769ZM110.921 21.5319C110.921 22.3014 110.756 23.0709 110.481 23.7305C110.207 24.3901 109.767 24.9947 109.217 25.5444C108.667 26.0391 108.063 26.4788 107.348 26.7537C106.634 27.0285 105.864 27.1934 105.095 27.1934C104.27 27.1934 103.501 27.0285 102.786 26.7537C102.072 26.4788 101.467 26.0391 100.917 25.5444C100.368 25.0497 99.9829 24.4451 99.6531 23.7305C99.3782 23.0709 99.2133 22.3014 99.2133 21.5319C99.2133 20.7624 99.3782 19.9929 99.6531 19.3333C99.9279 18.6737 100.368 18.069 100.917 17.5194C101.467 17.0247 102.072 16.585 102.786 16.3101C103.501 16.0353 104.27 15.8704 105.095 15.8704C105.919 15.8704 106.634 16.0353 107.348 16.3101C108.063 16.585 108.667 17.0247 109.217 17.5194C109.767 18.0141 110.152 18.6187 110.481 19.3333C110.756 19.9929 110.921 20.7624 110.921 21.5319ZM108.338 21.5319C108.338 21.0922 108.228 20.6524 108.063 20.2677C107.898 19.8829 107.678 19.5531 107.348 19.2233C107.073 18.9485 106.689 18.7286 106.304 18.5637C105.919 18.3988 105.479 18.2889 105.04 18.2889C104.6 18.2889 104.16 18.3988 103.721 18.5637C103.336 18.7286 102.951 18.9485 102.676 19.2233C102.401 19.4982 102.182 19.828 102.017 20.2677C101.852 20.6524 101.742 21.0922 101.742 21.5319C101.742 21.9716 101.852 22.3564 102.017 22.7961C102.182 23.1809 102.401 23.5107 102.676 23.8405C102.951 24.1153 103.336 24.3352 103.721 24.5001C104.105 24.6649 104.545 24.7749 105.04 24.7749C105.534 24.7749 105.919 24.6649 106.304 24.5001C106.689 24.3352 107.073 24.1153 107.348 23.8405C107.623 23.5656 107.898 23.2358 108.063 22.7961C108.283 22.3564 108.338 21.9716 108.338 21.5319ZM66.7835 28.4576C66.3987 28.4576 66.1239 28.5675 65.904 28.7874C65.6842 29.0072 65.5742 29.337 65.5742 29.6668C65.5742 30.0516 65.6842 30.3264 65.904 30.5463C66.1239 30.7662 66.3987 30.8761 66.8385 30.8761C67.2232 30.8761 67.553 30.7662 67.7729 30.5463C67.9927 30.3264 68.1027 30.0516 68.1027 29.6668C68.1027 29.2821 67.9927 29.0072 67.7729 28.7874C67.4431 28.5675 67.1683 28.4576 66.7835 28.4576ZM21.6016 28.4576C21.2168 28.4576 20.942 28.5675 20.7221 28.7874C20.5023 29.0072 20.3923 29.337 20.3923 29.6668C20.3923 30.0516 20.5023 30.3264 20.7221 30.5463C20.942 30.7662 21.2168 30.8761 21.6565 30.8761C22.0413 30.8761 22.3711 30.7662 22.591 30.5463C22.8108 30.3264 22.9208 30.0516 22.9208 29.6668C22.9208 29.2821 22.8108 29.0072 22.591 28.7874C22.3161 28.5675 21.9863 28.4576 21.6016 28.4576ZM91.683 28.4576C91.2983 28.4576 91.0234 28.5675 90.8036 28.7874C90.5837 29.0072 90.4738 29.337 90.4738 29.6668C90.4738 30.0516 90.5837 30.3264 90.8036 30.5463C91.0234 30.7662 91.2983 30.8761 91.738 30.8761C92.1228 30.8761 92.4526 30.7662 92.6724 30.5463C92.8923 30.3264 93.0022 30.0516 93.0022 29.6668C93.0022 29.2821 92.8923 29.0072 92.6724 28.7874C92.3976 28.5675 92.0678 28.4576 91.683 28.4576ZM13.4666 11.693C13.0269 11.693 12.6971 11.8029 12.4223 12.0778C12.1475 12.3526 12.0375 12.6824 12.0375 13.1221C12.0375 13.5618 12.1475 13.8916 12.4223 14.1665C12.6971 14.4413 13.0269 14.5512 13.4666 14.5512C13.9064 14.5512 14.2911 14.4413 14.511 14.1665C14.7858 13.8916 14.8957 13.5618 14.8957 13.1221C14.8957 12.6824 14.7858 12.3526 14.511 12.0778C14.2911 11.8029 13.9613 11.693 13.4666 11.693Z" fill="#F05323"/>
</svg>
