<svg width="34" height="34" viewBox="0 0 34 34" fill="none" xmlns="http://www.w3.org/2000/svg">
<g clip-path="url(#clip0_5482_96284)">
<path d="M27.4825 33.1582C20.3534 33.9191 13.2026 33.9191 6.07345 33.1582C3.23073 32.8548 0.985402 30.6094 0.682007 27.7665C-0.0788981 20.6373 -0.0788981 13.4868 0.682007 6.35763C0.985402 3.51491 3.23073 1.26958 6.07345 0.966187C13.2026 0.205282 20.3531 0.205282 27.4823 0.966187C30.3253 1.26958 32.5706 3.51491 32.874 6.35763C33.6349 13.4868 33.6349 20.6373 32.874 27.7665C32.5706 30.6094 30.3255 32.8548 27.4825 33.1582Z" fill="url(#paint0_linear_5482_96284)"/>
<path d="M31.0612 7.56355C30.7921 5.04102 28.7999 3.04848 26.2771 2.77916C19.9508 2.10421 13.6057 2.10421 7.27937 2.77916C4.75684 3.04848 2.7643 5.04102 2.49498 7.56355C1.82003 13.8898 1.82003 20.235 2.49498 26.561C2.7643 29.0838 4.75684 31.0763 7.27937 31.3454C13.6057 32.0206 19.9508 32.0206 26.2768 31.3454C28.7996 31.0763 30.7921 29.0838 31.0612 26.561C31.7364 20.235 31.7364 13.8898 31.0612 7.56355Z" fill="url(#paint1_linear_5482_96284)"/>
<path d="M0.61084 27.0757C0.633728 27.3061 0.657379 27.5365 0.682048 27.7669C0.985443 30.6096 3.23077 32.8549 6.07374 33.1583C13.2029 33.9193 20.3534 33.9193 27.4826 33.1583C30.3256 32.8549 32.5706 30.6096 32.874 27.7669C32.8987 27.5365 32.9223 27.3061 32.9455 27.0757H0.61084Z" fill="url(#paint2_linear_5482_96284)"/>
<path d="M33.4375 15.891L26.5184 8.97211C25.743 9.41537 25.0597 9.6613 24.545 9.79761C24.2555 9.87517 24.0193 9.91739 23.8494 9.94053C23.0692 9.14072 21.9797 8.64404 20.7737 8.64404C18.401 8.64404 16.4771 10.5677 16.4771 12.9409C16.4771 13.0266 16.4794 13.1113 16.485 13.1957C16.4964 13.4015 16.5226 13.6037 16.5631 13.8002C15.5725 13.7855 12.3529 13.521 9.28235 10.8889C9.28209 10.8889 9.28209 10.8886 9.28209 10.8886H9.28184L7.83378 9.4403C7.83378 9.4403 6.13497 12.4053 8.63258 14.6552C8.74219 14.7776 8.86273 14.8984 8.99472 15.0171C9.00515 15.0288 9.01608 15.0403 9.02651 15.052C8.6987 15.0298 7.71273 14.9317 7.14205 14.5286C7.14205 14.5286 7.02735 16.3408 8.53721 17.675L9.75639 18.9046C9.38509 18.9353 8.97438 18.928 8.68878 18.8028C8.68878 18.8028 8.94157 19.8763 9.91864 20.7354L11.6266 22.4522C10.602 23.0491 8.80831 23.796 6.44727 23.6053L16.8082 33.729C20.3681 33.728 23.928 33.5377 27.4825 33.1583C30.3255 32.8549 32.5708 30.6096 32.8742 27.7669C33.2961 23.8123 33.4835 19.8511 33.4375 15.891Z" fill="url(#paint3_linear_5482_96284)"/>
<path d="M27.1092 10.6409C26.3717 11.0267 25.2608 11.205 24.8926 11.2563C24.8895 11.2385 24.8865 11.2215 24.8834 11.2045C26.1354 10.4301 26.5187 8.97211 26.5187 8.97211C25.7433 9.41537 25.0599 9.6613 24.5452 9.79761C24.2558 9.87517 24.0195 9.91713 23.8497 9.94053C23.0694 9.14046 21.9799 8.64404 20.774 8.64404C18.4013 8.64404 16.4774 10.5674 16.4774 12.9409C16.4774 13.0264 16.4797 13.1113 16.4853 13.1955C16.4967 13.4012 16.5229 13.6034 16.5633 13.8C15.4149 13.7829 11.2693 13.4307 7.83404 9.4403C7.83404 9.4403 5.92109 12.7779 9.13714 15.0578C9.13714 15.0578 7.83404 15.0171 7.1423 14.5286C7.1423 14.5286 6.93885 17.7446 10.6429 18.7619C10.6429 18.7619 9.34059 19.0879 8.68878 18.8028C8.68878 18.8028 9.34033 21.5708 12.5968 21.7747C12.5968 21.7747 10.2612 23.913 6.44727 23.6053C8.32308 24.7929 10.547 25.4803 12.9315 25.4803C19.6359 25.4803 25.0711 20.0454 25.0711 13.341C25.0711 13.2573 25.0704 13.1736 25.0686 13.0899C25.0704 13.0404 25.0711 12.991 25.0711 12.9409C25.0711 12.9061 25.0704 12.8712 25.0699 12.8364C26.3094 12.0104 27.1092 10.6409 27.1092 10.6409Z" fill="white"/>
</g>
<defs>
<linearGradient id="paint0_linear_5482_96284" x1="11.1786" y1="5.08211" x2="19.6096" y2="23.1204" gradientUnits="userSpaceOnUse">
<stop stop-color="#00C3FF"/>
<stop offset="1" stop-color="#00B0ED"/>
</linearGradient>
<linearGradient id="paint1_linear_5482_96284" x1="23.8279" y1="20.8441" x2="-24.6011" y2="-5.135" gradientUnits="userSpaceOnUse">
<stop stop-color="#00B0ED" stop-opacity="0"/>
<stop offset="1" stop-color="#00A2CE"/>
</linearGradient>
<linearGradient id="paint2_linear_5482_96284" x1="16.7781" y1="28.8712" x2="16.7781" y2="33.2389" gradientUnits="userSpaceOnUse">
<stop stop-color="#00B0ED" stop-opacity="0"/>
<stop offset="1" stop-color="#00A2CE"/>
</linearGradient>
<linearGradient id="paint3_linear_5482_96284" x1="31.9747" y1="31.7806" x2="15.6903" y2="15.4962" gradientUnits="userSpaceOnUse">
<stop stop-color="#00B0ED" stop-opacity="0"/>
<stop offset="1" stop-color="#00A2CE"/>
</linearGradient>
<clipPath id="clip0_5482_96284">
<rect width="33.3333" height="33.3333" fill="white" transform="translate(0.111328 0.395508)"/>
</clipPath>
</defs>
</svg>
